<svg width="96" height="29" viewBox="0 0 96 29" fill="none" xmlns="http://www.w3.org/2000/svg">
<g clip-path="url(#clip0_2214_6738)">
<path d="M88.3552 9.42497e-05H7.64916C7.35497 9.42497e-05 7.06432 9.42497e-05 6.77091 0.00154425C6.52531 0.00299424 6.28166 0.00720648 6.03369 0.0107517C5.49499 0.0164805 4.95756 0.0593093 4.42607 0.138866C3.89532 0.220155 3.3812 0.373407 2.9011 0.59344C2.42158 0.815334 1.98343 1.10366 1.60254 1.44797C1.21966 1.7913 0.900491 2.18815 0.65732 2.62325C0.413478 3.05749 0.244397 3.52281 0.155916 4.00315C0.0665952 4.48289 0.0185306 4.96816 0.012154 5.4546C0.00470918 5.67688 0.00392298 5.89991 0 6.12222V22.88C0.00392298 23.1051 0.00470918 23.3232 0.012154 23.5484C0.0185325 24.0348 0.0665971 24.52 0.155916 24.9998C0.244152 25.4804 0.413243 25.946 0.65732 26.3804C0.900381 26.8141 1.21959 27.2093 1.60254 27.5507C1.98198 27.8966 2.42042 28.1851 2.9011 28.4053C3.3812 28.6259 3.89526 28.7801 4.42607 28.8626C4.95765 28.9415 5.49503 28.9844 6.03369 28.9908C6.28166 28.9957 6.52531 28.9986 6.77091 28.9986C7.06431 29 7.35499 29 7.64916 29H88.3552C88.6435 29 88.9365 29 89.2248 28.9986C89.4692 28.9986 89.7199 28.9957 89.9644 28.9908C90.502 28.9847 91.0384 28.9419 91.5689 28.8626C92.1014 28.7795 92.6173 28.6254 93.0997 28.4053C93.58 28.185 94.018 27.8964 94.3971 27.5507C94.7791 27.208 95.099 26.813 95.345 26.3804C95.5873 25.9457 95.7548 25.4801 95.8417 24.9998C95.9312 24.52 95.9809 24.0348 95.9906 23.5484C95.9937 23.3232 95.9937 23.1051 95.9937 22.88C96 22.6166 96 22.3547 96 22.087V6.91377C96 6.64826 96 6.38489 95.9937 6.12222C95.9937 5.89991 95.9937 5.67688 95.9906 5.45457C95.9809 4.96808 95.9312 4.48293 95.8417 4.00313C95.7545 3.52306 95.5871 3.05777 95.345 2.62322C94.8498 1.75111 94.0646 1.04121 93.0997 0.593374C92.6173 0.373879 92.1013 0.220668 91.5689 0.138801C91.0385 0.0588936 90.5021 0.0160498 89.9644 0.0106502C89.7199 0.00711223 89.4692 0.00286374 89.2248 0.00145C88.9365 0 88.6435 0 88.3552 0V9.42497e-05Z" fill="#9E9E9E"/>
<path d="M7.00361 28.2824C6.75936 28.2824 6.52101 28.2795 6.27867 28.2746C5.77666 28.2687 5.27582 28.2293 4.78026 28.1567C4.31818 28.085 3.87054 27.9515 3.45212 27.7607C3.03754 27.5714 2.65941 27.3233 2.33221 27.0258C2.00027 26.7318 1.72392 26.3908 1.51411 26.0163C1.30198 25.6394 1.15517 25.2354 1.07881 24.8184C0.996335 24.3703 0.951715 23.9172 0.94533 23.463C0.940248 23.3106 0.933594 22.803 0.933594 22.803V6.10442C0.933594 6.10442 0.94068 5.60462 0.94537 5.45779C0.951483 5.00432 0.995844 4.55193 1.07807 4.10453C1.15458 3.68637 1.3015 3.28121 1.51374 2.90306C1.72278 2.52884 1.9976 2.18759 2.32753 1.89253C2.6571 1.59467 3.03644 1.34527 3.45173 1.15343C3.86919 0.963229 4.31598 0.830684 4.77713 0.760232C5.27431 0.686909 5.77689 0.647267 6.28065 0.641639L7.004 0.632812H89.3893L90.1213 0.641993C90.6204 0.647342 91.1184 0.68663 91.6111 0.759523C92.0769 0.830859 92.5283 0.964329 92.9506 1.15554C93.7825 1.54217 94.4595 2.15384 94.8866 2.90483C95.0954 3.28036 95.2401 3.68222 95.3156 4.09677C95.3988 4.54784 95.4454 5.00378 95.4549 5.46097C95.4573 5.66568 95.4573 5.88558 95.4573 6.10442C95.4636 6.37549 95.4636 6.6335 95.4636 6.89363V22.0222C95.4636 22.2848 95.4636 22.5411 95.4573 22.7994C95.4573 23.0345 95.4573 23.2499 95.4541 23.4715C95.4448 23.9205 95.399 24.3683 95.3171 24.8113C95.2423 25.2313 95.0963 25.6385 94.8842 26.0185C94.6729 26.3889 94.3982 26.727 94.0701 27.0202C93.7426 27.3193 93.3638 27.5689 92.9482 27.7593C92.5272 27.9516 92.0764 28.0856 91.6111 28.1567C91.1155 28.2297 90.6147 28.2691 90.1126 28.2746C89.8778 28.2795 89.6319 28.2824 89.3932 28.2824L88.5242 28.2838L7.00361 28.2824Z" fill="black"/>
<path d="M19.081 14.6746C19.0887 14.0713 19.2478 13.4797 19.5435 12.9549C19.8391 12.4302 20.2618 11.9893 20.772 11.6733C20.4479 11.2069 20.0202 10.8231 19.5231 10.5523C19.0259 10.2816 18.473 10.1314 17.9081 10.1135C16.7031 9.98614 15.5349 10.8399 14.9209 10.8399C14.295 10.8399 13.3496 10.1262 12.3315 10.1473C11.673 10.1687 11.0313 10.3616 10.4688 10.7072C9.90631 11.0528 9.44227 11.5392 9.1219 12.1192C7.73412 14.5396 8.76928 18.0969 10.0987 20.0534C10.7638 21.0114 11.5411 22.0816 12.5582 22.0437C13.5535 22.0021 13.9253 21.4043 15.1267 21.4043C16.317 21.4043 16.6657 22.0437 17.7035 22.0195C18.7715 22.0021 19.4444 21.0572 20.0862 20.0901C20.5641 19.4075 20.9318 18.653 21.1758 17.8546C20.5553 17.5903 20.0258 17.1477 19.6533 16.5822C19.2808 16.0168 19.0817 15.3533 19.081 14.6746Z" fill="white"/>
<path d="M17.1216 8.82696C17.704 8.12274 17.9908 7.21758 17.9214 6.30371C17.0317 6.39784 16.2099 6.82618 15.6197 7.50338C15.3311 7.83421 15.1101 8.21909 14.9693 8.63602C14.8285 9.05295 14.7706 9.49374 14.799 9.93321C15.244 9.93783 15.6842 9.84067 16.0866 9.64904C16.4889 9.45742 16.8428 9.17634 17.1216 8.82696Z" fill="white"/>
<path d="M33.6626 19.6186H30.266L29.4504 22.0449H28.0117L31.2289 13.0684H32.7236L35.9407 22.0449H34.4776L33.6626 19.6186ZM30.6178 18.499H33.3101L31.9829 14.5614H31.9458L30.6178 18.499Z" fill="white"/>
<path d="M42.8892 18.7725C42.8892 20.8063 41.8087 22.1129 40.178 22.1129C39.7649 22.1347 39.3541 22.0389 38.9926 21.8363C38.6311 21.6338 38.3335 21.3329 38.1339 20.9679H38.1031V24.2095H36.7695V15.4999H38.0603V16.5884H38.0849C38.2936 16.2252 38.5963 15.9258 38.9605 15.722C39.3248 15.5183 39.7371 15.4179 40.1535 15.4314C41.8023 15.4314 42.8892 16.7444 42.8892 18.7725ZM41.5186 18.7725C41.5186 17.4475 40.8388 16.5764 39.8017 16.5764C38.7828 16.5764 38.0975 17.4659 38.0975 18.7725C38.0975 20.0912 38.7828 20.9743 39.8017 20.9743C40.8388 20.9743 41.5186 20.1095 41.5186 18.7725Z" fill="white"/>
<path d="M50.0396 18.7725C50.0396 20.8063 48.9591 22.1129 47.3284 22.1129C46.9153 22.1347 46.5045 22.0388 46.143 21.8363C45.7815 21.6338 45.4839 21.3329 45.2843 20.9679H45.2535V24.2095H43.9199V15.4999H45.2107V16.5884H45.2352C45.444 16.2252 45.7466 15.9258 46.1109 15.722C46.4752 15.5183 46.8874 15.4179 47.3039 15.4314C48.9528 15.4314 50.0396 16.7444 50.0396 18.7725ZM48.6689 18.7725C48.6689 17.4475 47.9892 16.5764 46.9521 16.5764C45.9332 16.5764 45.2479 17.4658 45.2479 18.7725C45.2479 20.0912 45.9332 20.9743 46.9521 20.9743C47.9892 20.9743 48.669 20.1095 48.669 18.7725H48.6689Z" fill="white"/>
<path d="M54.7655 19.5436C54.8643 20.4337 55.7227 21.0182 56.8958 21.0182C58.0198 21.0182 58.8284 20.4337 58.8284 19.6311C58.8284 18.9343 58.3407 18.5171 57.1859 18.2312L56.031 17.951C54.3948 17.5528 53.6352 16.782 53.6352 15.5311C53.6352 13.9823 54.975 12.9185 56.8776 12.9185C58.7605 12.9185 60.0513 13.9823 60.0947 15.5311H58.7485C58.668 14.6353 57.9329 14.0945 56.8586 14.0945C55.7844 14.0945 55.0493 14.6416 55.0493 15.4379C55.0493 16.0725 55.5188 16.446 56.6673 16.7318L57.6491 16.9747C59.4773 17.4102 60.2369 18.15 60.2369 19.463C60.2369 21.1424 58.909 22.1943 56.7969 22.1943C54.8208 22.1943 53.4866 21.1671 53.4004 19.5435L54.7655 19.5436Z" fill="white"/>
<path d="M63.1145 13.9507V15.4995H64.35V16.5633H63.1145V20.1713C63.1145 20.7318 63.3619 20.993 63.905 20.993C64.0516 20.9904 64.1981 20.98 64.3436 20.9619V22.0194C64.0995 22.0653 63.8513 22.0861 63.603 22.0815C62.2876 22.0815 61.7747 21.5838 61.7747 20.3145V16.5633H60.8301V15.4995H61.7747V13.9507H63.1145Z" fill="white"/>
<path d="M65.0654 18.7721C65.0654 16.7129 66.2693 15.4189 68.1466 15.4189C70.0303 15.4189 71.2286 16.7129 71.2286 18.7721C71.2286 20.8369 70.0366 22.1252 68.1466 22.1252C66.2574 22.1252 65.0654 20.8369 65.0654 18.7721ZM69.8698 18.7721C69.8698 17.3595 69.2272 16.5258 68.1466 16.5258C67.0661 16.5258 66.4242 17.3659 66.4242 18.7721C66.4242 20.1903 67.0661 21.0176 68.1466 21.0176C69.2272 21.0176 69.8698 20.1903 69.8698 18.7721H69.8698Z" fill="white"/>
<path d="M72.3281 15.4998H73.6V16.6137H73.6309C73.7169 16.2658 73.9192 15.9584 74.2038 15.743C74.4884 15.5277 74.8379 15.4176 75.1935 15.4313C75.3472 15.4308 75.5005 15.4476 75.6504 15.4814V16.738C75.4564 16.6783 75.254 16.6508 75.0513 16.6568C74.8575 16.6489 74.6644 16.6833 74.4851 16.7577C74.3058 16.832 74.1446 16.9446 74.0126 17.0877C73.8806 17.2307 73.7809 17.4008 73.7203 17.5864C73.6597 17.7719 73.6397 17.9685 73.6617 18.1625V22.0444H72.3281L72.3281 15.4998Z" fill="white"/>
<path d="M81.7989 20.1218C81.6195 21.3099 80.4709 22.1252 79.0015 22.1252C77.1115 22.1252 75.9385 20.8496 75.9385 18.8031C75.9385 16.7503 77.1178 15.4189 78.9454 15.4189C80.7428 15.4189 81.8732 16.6628 81.8732 18.6471V19.1074H77.2846V19.1886C77.2635 19.4294 77.2934 19.6721 77.3724 19.9004C77.4515 20.1287 77.5779 20.3374 77.7432 20.5128C77.9085 20.6881 78.1089 20.826 78.3312 20.9173C78.5534 21.0086 78.7924 21.0512 79.0323 21.0423C79.3474 21.0721 79.6637 20.9985 79.934 20.8327C80.2043 20.6668 80.4143 20.4175 80.5326 20.1218L81.7989 20.1218ZM77.2909 18.1685H80.5389C80.5509 17.9519 80.5183 17.7352 80.4432 17.5319C80.3681 17.3287 80.2521 17.1432 80.1024 16.9873C79.9528 16.8313 79.7728 16.7082 79.5737 16.6256C79.3746 16.543 79.1607 16.5028 78.9454 16.5075C78.7282 16.5062 78.513 16.5482 78.312 16.6311C78.1111 16.7141 77.9284 16.8363 77.7746 16.9907C77.6208 17.1452 77.4989 17.3287 77.4158 17.5309C77.3328 17.733 77.2904 17.9498 77.2909 18.1685V18.1685Z" fill="white"/>
<path d="M30.4499 6.31105C30.7295 6.29084 31.01 6.33338 31.2713 6.43562C31.5326 6.53786 31.768 6.69723 31.9608 6.90226C32.1535 7.10728 32.2987 7.35284 32.3858 7.62121C32.4729 7.88959 32.4998 8.1741 32.4645 8.45422C32.4645 9.83218 31.7253 10.6243 30.4499 10.6243H28.9033V6.31105H30.4499ZM29.5683 10.0143H30.3756C30.5754 10.0263 30.7753 9.99331 30.9608 9.91769C31.1463 9.84207 31.3128 9.72572 31.448 9.57713C31.5833 9.42853 31.684 9.25143 31.7427 9.0587C31.8014 8.86597 31.8168 8.66247 31.7876 8.46301C31.8147 8.26435 31.7978 8.06211 31.7381 7.87079C31.6785 7.67948 31.5776 7.50382 31.4426 7.35641C31.3077 7.20899 31.142 7.09347 30.9576 7.01812C30.7731 6.94277 30.5744 6.90946 30.3756 6.92057H29.5683V10.0143Z" fill="white"/>
<path d="M33.2162 8.99552C33.1959 8.78162 33.2202 8.56579 33.2875 8.36189C33.3548 8.158 33.4637 7.97053 33.6072 7.81151C33.7507 7.65249 33.9256 7.52544 34.1206 7.43849C34.3157 7.35155 34.5267 7.30664 34.74 7.30664C34.9533 7.30664 35.1643 7.35155 35.3593 7.43849C35.5544 7.52544 35.7293 7.65249 35.8727 7.81151C36.0162 7.97053 36.1251 8.158 36.1925 8.36189C36.2598 8.56579 36.2841 8.78162 36.2638 8.99552C36.2845 9.20965 36.2605 9.42578 36.1933 9.63C36.1261 9.83423 36.0173 10.022 35.8738 10.1814C35.7303 10.3407 35.5553 10.468 35.36 10.5552C35.1648 10.6423 34.9535 10.6873 34.74 10.6873C34.5264 10.6873 34.3152 10.6423 34.1199 10.5552C33.9247 10.468 33.7497 10.3407 33.6062 10.1814C33.4626 10.022 33.3538 9.83423 33.2867 9.63C33.2195 9.42578 33.1955 9.20965 33.2162 8.99552ZM35.6079 8.99552C35.6079 8.28996 35.2932 7.87735 34.741 7.87735C34.1867 7.87735 33.8749 8.28996 33.8749 8.99553C33.8749 9.70675 34.1868 10.1162 34.741 10.1162C35.2932 10.1162 35.6079 9.70392 35.6079 8.99552H35.6079Z" fill="white"/>
<path d="M40.3143 10.6237H39.6528L38.985 8.22634H38.9345L38.2695 10.6237H37.6143L36.7236 7.36865H37.3704L37.9493 9.85241H37.9969L38.6612 7.36865H39.273L39.9373 9.85241H39.9877L40.5638 7.36865H41.2014L40.3143 10.6237Z" fill="white"/>
<path d="M41.9502 7.36926H42.5641V7.88634H42.6117C42.6925 7.70063 42.8289 7.54494 43.0017 7.44099C43.1746 7.33704 43.3753 7.29 43.5759 7.30643C43.7332 7.29452 43.891 7.3184 44.0378 7.3763C44.1847 7.4342 44.3167 7.52463 44.4241 7.6409C44.5315 7.75717 44.6115 7.89629 44.6583 8.04796C44.7051 8.19963 44.7174 8.35996 44.6943 8.51708V10.6242H44.0567V8.67839C44.0567 8.15531 43.831 7.89517 43.3594 7.89517C43.2527 7.89016 43.1461 7.90846 43.047 7.94882C42.948 7.98918 42.8587 8.05064 42.7855 8.12899C42.7122 8.20733 42.6566 8.30072 42.6225 8.40274C42.5884 8.50475 42.5766 8.613 42.5879 8.72004V10.6243H41.9502L41.9502 7.36926Z" fill="white"/>
<path d="M45.7109 6.09863H46.3486V10.6243H45.7109V6.09863Z" fill="white"/>
<path d="M47.2357 8.99559C47.2154 8.78166 47.2397 8.56583 47.3071 8.36192C47.3744 8.15802 47.4833 7.97054 47.6268 7.81152C47.7703 7.6525 47.9452 7.52544 48.1403 7.4385C48.3354 7.35155 48.5463 7.30664 48.7597 7.30664C48.973 7.30664 49.184 7.35155 49.3791 7.4385C49.5741 7.52544 49.749 7.6525 49.8925 7.81152C50.036 7.97054 50.1449 8.15802 50.2123 8.36192C50.2796 8.56583 50.3039 8.78166 50.2836 8.99559C50.3043 9.20972 50.2803 9.42585 50.2131 9.63007C50.1459 9.8343 50.0371 10.0221 49.8935 10.1814C49.75 10.3408 49.575 10.4681 49.3797 10.5552C49.1845 10.6423 48.9732 10.6873 48.7597 10.6873C48.5461 10.6873 48.3349 10.6423 48.1396 10.5552C47.9443 10.4681 47.7693 10.3408 47.6258 10.1814C47.4823 10.0221 47.3734 9.8343 47.3062 9.63007C47.2391 9.42585 47.215 9.20972 47.2357 8.99559ZM49.6274 8.99559C49.6274 8.29002 49.3127 7.87741 48.7605 7.87741C48.2063 7.87741 47.8944 8.29002 47.8944 8.99559C47.8944 9.70681 48.2063 10.1162 48.7605 10.1162C49.3127 10.1162 49.6274 9.70398 49.6274 8.99559H49.6274Z" fill="white"/>
<path d="M50.9541 9.70395C50.9541 9.11803 51.3872 8.78025 52.1559 8.73224L53.0311 8.68142V8.40046C53.0311 8.05668 52.8055 7.86255 52.3696 7.86255C52.0136 7.86255 51.767 7.99421 51.6962 8.22434H51.0788C51.144 7.66525 51.6661 7.30664 52.3991 7.30664C53.2091 7.30664 53.666 7.71289 53.666 8.40046V10.6245H53.0522V10.167H53.0017C52.8993 10.3311 52.7555 10.4649 52.585 10.5547C52.4145 10.6445 52.2234 10.6871 52.0312 10.6781C51.8955 10.6923 51.7584 10.6777 51.6287 10.6353C51.499 10.5929 51.3796 10.5235 51.2781 10.4318C51.1766 10.34 51.0953 10.2278 51.0395 10.1024C50.9837 9.97707 50.9546 9.84133 50.9541 9.70395ZM53.0311 9.42581V9.15368L52.2421 9.20451C51.7971 9.23451 51.5953 9.38699 51.5953 9.67394C51.5953 9.9669 51.8476 10.1374 52.1945 10.1374C52.2961 10.1477 52.3988 10.1374 52.4964 10.107C52.594 10.0766 52.6845 10.0267 52.7625 9.96027C52.8406 9.89388 52.9046 9.81235 52.9507 9.72054C52.9969 9.62872 53.0242 9.52849 53.0311 9.42581Z" fill="white"/>
<path d="M54.5049 8.99539C54.5049 7.96687 55.0298 7.3153 55.8461 7.3153C56.0481 7.30593 56.2485 7.35465 56.4239 7.45577C56.5994 7.5569 56.7427 7.70625 56.837 7.88636H56.8846V6.09863H57.5223V10.6243H56.9113V10.11H56.8608C56.7592 10.2889 56.6109 10.4364 56.4321 10.5365C56.2532 10.6366 56.0506 10.6855 55.8461 10.6779C55.0241 10.678 54.5049 10.0264 54.5049 8.99539ZM55.1636 8.99539C55.1636 9.68579 55.4867 10.1012 56.0269 10.1012C56.5644 10.1012 56.8966 9.6798 56.8966 8.99822C56.8966 8.31983 56.5609 7.89239 56.0269 7.89239C55.4901 7.89239 55.1636 8.31065 55.1636 8.99539H55.1636Z" fill="white"/>
<path d="M60.1605 8.99552C60.1402 8.78162 60.1645 8.56579 60.2318 8.36189C60.2992 8.158 60.4081 7.97053 60.5515 7.81151C60.695 7.65249 60.8699 7.52544 61.065 7.43849C61.26 7.35155 61.471 7.30664 61.6843 7.30664C61.8976 7.30664 62.1086 7.35155 62.3037 7.43849C62.4987 7.52544 62.6736 7.65249 62.8171 7.81151C62.9606 7.97053 63.0695 8.158 63.1368 8.36189C63.2041 8.56579 63.2284 8.78162 63.2081 8.99552C63.2288 9.20965 63.2048 9.42578 63.1376 9.63C63.0705 9.83423 62.9617 10.022 62.8181 10.1814C62.6746 10.3407 62.4996 10.468 62.3044 10.5552C62.1091 10.6423 61.8979 10.6873 61.6843 10.6873C61.4708 10.6873 61.2595 10.6423 61.0643 10.5552C60.869 10.468 60.694 10.3407 60.5505 10.1814C60.407 10.022 60.2981 9.83423 60.231 9.63C60.1638 9.42578 60.1398 9.20965 60.1605 8.99552ZM62.5522 8.99552C62.5522 8.28996 62.2376 7.87735 61.6854 7.87735C61.1311 7.87735 60.8193 8.28996 60.8193 8.99553C60.8193 9.70675 61.1311 10.1162 61.6854 10.1162C62.2376 10.1162 62.5522 9.70392 62.5522 8.99552Z" fill="white"/>
<path d="M64.0625 7.36926H64.6764V7.88634H64.724C64.8049 7.70063 64.9412 7.54494 65.114 7.44099C65.2869 7.33704 65.4876 7.29 65.6883 7.30643C65.8455 7.29452 66.0033 7.3184 66.1501 7.3763C66.297 7.4342 66.429 7.52463 66.5364 7.6409C66.6438 7.75717 66.7238 7.89629 66.7706 8.04796C66.8174 8.19963 66.8297 8.35996 66.8067 8.51708V10.6242H66.169V8.67839C66.169 8.15531 65.9433 7.89517 65.4717 7.89517C65.365 7.89016 65.2584 7.90846 65.1593 7.94882C65.0603 7.98918 64.9711 8.05064 64.8978 8.12899C64.8245 8.20733 64.7689 8.30072 64.7348 8.40274C64.7007 8.50475 64.6889 8.613 64.7002 8.72004V10.6243H64.0625V7.36926Z" fill="white"/>
<path d="M70.4101 6.55859V7.38382H71.1102V7.92491H70.4101V9.59865C70.4101 9.93961 70.5496 10.0889 70.867 10.0889C70.9483 10.0886 71.0295 10.0837 71.1102 10.0741V10.6092C70.9957 10.6298 70.8796 10.6408 70.7633 10.642C70.0541 10.642 69.7717 10.3907 69.7717 9.76312V7.92488H69.2588V7.38379H69.7717V6.55859H70.4101Z" fill="white"/>
<path d="M71.9814 6.09863H72.6135V7.89238H72.664C72.7487 7.70493 72.8888 7.54836 73.0651 7.44402C73.2414 7.33968 73.4454 7.29263 73.6492 7.30929C73.8056 7.30072 73.962 7.32702 74.1071 7.38633C74.2523 7.44563 74.3826 7.53648 74.4889 7.65238C74.5952 7.76828 74.6748 7.90639 74.722 8.05684C74.7692 8.20729 74.7829 8.36639 74.762 8.52277V10.6243H74.1237V8.68125C74.1237 8.16133 73.8833 7.89802 73.4327 7.89802C73.3231 7.88897 73.2129 7.90415 73.1097 7.9425C73.0065 7.98085 72.9129 8.04144 72.8355 8.12005C72.758 8.19865 72.6984 8.29336 72.6611 8.39755C72.6237 8.50174 72.6094 8.6129 72.6192 8.72324V10.6243H71.9815L71.9814 6.09863Z" fill="white"/>
<path d="M78.4807 9.74565C78.3941 10.0431 78.2064 10.3005 77.9504 10.4726C77.6945 10.6448 77.3866 10.7208 77.0806 10.6874C76.8677 10.693 76.6562 10.6519 76.4606 10.567C76.2651 10.482 76.0902 10.3552 75.9482 10.1954C75.8062 10.0355 75.7004 9.84644 75.6382 9.64128C75.576 9.43611 75.5589 9.21977 75.588 9.00726C75.5597 8.7941 75.5771 8.57729 75.6392 8.37151C75.7012 8.16573 75.8064 7.97579 75.9477 7.81453C76.089 7.65328 76.263 7.52449 76.458 7.43687C76.6529 7.34926 76.8643 7.30486 77.0778 7.3067C77.9769 7.3067 78.5192 7.92547 78.5192 8.9476V9.17175H76.2376V9.20775C76.2276 9.3272 76.2425 9.44743 76.2814 9.56074C76.3202 9.67405 76.3821 9.77793 76.4631 9.86573C76.5441 9.95352 76.6425 10.0233 76.7518 10.0706C76.8612 10.1178 76.9791 10.1416 77.0981 10.1402C77.2507 10.1587 77.4052 10.131 77.5421 10.0608C77.679 9.99049 77.792 9.8808 77.8668 9.74563L78.4807 9.74565ZM76.2376 8.69665H77.8696C77.8777 8.58741 77.8629 8.47768 77.8264 8.37451C77.7898 8.27135 77.7322 8.17703 77.6573 8.09762C77.5824 8.0182 77.4918 7.95546 77.3914 7.9134C77.291 7.87135 77.183 7.85092 77.0743 7.85343C76.964 7.85204 76.8545 7.8729 76.7524 7.91478C76.6502 7.95667 76.5574 8.01873 76.4794 8.09732C76.4015 8.1759 76.3399 8.26942 76.2984 8.37235C76.2568 8.47528 76.2362 8.58555 76.2376 8.69665H76.2376Z" fill="white"/>
</g>
<defs>
<clipPath id="clip0_2214_6738">
<rect width="96" height="29" fill="white"/>
</clipPath>
</defs>
</svg>
