<svg width="50" height="51" viewBox="0 0 50 51" fill="none" xmlns="http://www.w3.org/2000/svg">
<path fill-rule="evenodd" clip-rule="evenodd" d="M4.41434 28.639C4.25725 27.6097 4.17871 26.5535 4.17871 25.4993C4.17871 14.1024 13.4509 4.83021 24.8478 4.83021C36.2448 4.83021 45.517 14.1024 45.517 25.4993C45.517 36.8963 36.2448 46.1685 24.8478 46.1685C18.3825 46.1685 12.4112 43.2272 8.46342 38.1034C7.95703 37.4461 8.08104 36.4994 8.73625 35.9951C9.39353 35.4867 10.336 35.6127 10.8466 36.2679C14.2177 40.6519 19.323 43.1632 24.8478 43.1632C34.5871 43.1632 42.5117 35.2407 42.5117 25.4993C42.5117 15.76 34.5871 7.83757 24.8478 7.83757C15.1085 7.83757 7.184 15.76 7.184 25.4993C7.184 26.4026 7.25221 27.3058 7.38656 28.1843C7.51057 29.0028 6.94837 29.7696 6.12781 29.8957C5.30311 30.0321 4.54042 29.4595 4.41434 28.639ZM30.6232 25.501C30.6232 25.9123 30.4599 26.3071 30.1664 26.5985L22.9612 33.7728C22.3535 34.3784 21.3717 34.3763 20.7682 33.7686C20.1646 33.161 20.1646 32.1812 20.7723 31.5777L26.8759 25.501L20.7723 19.4243C20.1646 18.8207 20.1646 17.8389 20.7682 17.2313C21.3717 16.6257 22.3535 16.6236 22.9612 17.2271L30.1664 24.4035C30.4599 24.6928 30.6232 25.0876 30.6232 25.501Z" fill="black"/>
</svg>
