<svg width="18" height="18" viewBox="0 0 18 18" fill="none" xmlns="http://www.w3.org/2000/svg">
<circle cx="9" cy="9" r="8.5" fill="white" stroke="#E0E0E0"/>
<path d="M12.2165 11.6626L9.55241 8.99999L12.2165 6.35698C12.35 6.20235 12.3428 5.9703 12.1999 5.8244C12.057 5.67849 11.8267 5.66793 11.6712 5.80014L8.99935 8.42355L6.37422 5.78053C6.2223 5.62849 5.97696 5.62849 5.82504 5.78053C5.75131 5.85417 5.70984 5.95439 5.70984 6.05895C5.70984 6.16351 5.75131 6.26374 5.82504 6.33737L8.44628 8.97646L5.7822 11.6156C5.70847 11.6892 5.66699 11.7894 5.66699 11.894C5.66699 11.9985 5.70847 12.0988 5.7822 12.1724C5.8557 12.2458 5.95521 12.2867 6.05874 12.2861C6.16036 12.2867 6.2582 12.2473 6.33137 12.1763L8.99935 9.52938L11.6712 12.2194C11.7447 12.2928 11.8442 12.3338 11.9477 12.3332C12.0499 12.3327 12.1478 12.2919 12.2204 12.2194C12.2936 12.1453 12.3344 12.0448 12.3336 11.9402C12.3329 11.8356 12.2907 11.7357 12.2165 11.6626Z" fill="black"/>
</svg>
