<svg width="95" height="29" viewBox="0 0 95 29" fill="none" xmlns="http://www.w3.org/2000/svg">
<g clip-path="url(#clip0_2270_506)">
<path fill-rule="evenodd" clip-rule="evenodd" d="M91.0768 28.9142H3.55312C1.62283 28.9142 0.0507812 27.3159 0.0507812 25.3694V4.10048C0.0507812 2.14685 1.62283 0.555664 3.55312 0.555664H91.0768C93.0054 0.555664 94.5792 2.14685 94.5792 4.10048V25.3694C94.5792 27.3159 93.0054 28.9142 91.0768 28.9142Z" fill="black"/>
<path fill-rule="evenodd" clip-rule="evenodd" d="M91.0768 1.12319C92.6958 1.12319 94.021 2.46155 94.021 4.10048V25.3694C94.021 27.0083 92.7045 28.3467 91.0768 28.3467H3.55312C1.93411 28.3467 0.608999 27.0083 0.608999 25.3694V4.10048C0.608999 2.46155 1.92542 1.12319 3.55312 1.12319H91.0768ZM91.0768 0.555664H3.55312C1.62283 0.555664 0.0507812 2.15392 0.0507812 4.10048V25.3694C0.0507812 27.323 1.62283 28.9142 3.55312 28.9142H91.0768C93.0054 28.9142 94.5792 27.323 94.5792 25.3694V4.10048C94.5792 2.15392 93.0054 0.555664 91.0768 0.555664Z" fill="#9E9E9E"/>
<path d="M49.8489 9.93644C49.2176 9.93644 48.6855 9.71191 48.2647 9.26991C47.8473 8.84029 47.6143 8.24801 47.6247 7.64336C47.6247 6.99805 47.8404 6.45174 48.2647 6.01858C48.6838 5.57659 49.2159 5.35205 49.8472 5.35205C50.4715 5.35205 51.0036 5.57659 51.4314 6.01858C51.8557 6.46588 52.0713 7.01219 52.0713 7.64336C52.0644 8.29045 51.8487 8.83675 51.4314 9.26814C51.0123 9.71368 50.4801 9.93644 49.8489 9.93644ZM31.0661 9.93644C30.4488 9.93644 29.9132 9.71544 29.4749 9.27875C29.0402 8.84383 28.8193 8.29398 28.8193 7.64513C28.8193 6.99628 29.0402 6.44644 29.4749 6.01151C29.9045 5.57482 30.4401 5.35382 31.0661 5.35382C31.3722 5.35382 31.6695 5.4157 31.9547 5.54123C32.2347 5.66322 32.4625 5.82941 32.6312 6.03273L32.6729 6.084L32.2017 6.55428L32.153 6.49594C31.8869 6.17417 31.5304 6.01681 31.0591 6.01681C30.6383 6.01681 30.2714 6.16886 29.9688 6.46942C29.6645 6.77174 29.5097 7.16777 29.5097 7.6469C29.5097 8.12602 29.6645 8.52205 29.9688 8.82438C30.2714 9.12494 30.6383 9.27698 31.0591 9.27698C31.5078 9.27698 31.8852 9.12494 32.1791 8.82438C32.353 8.64758 32.4608 8.40006 32.499 8.08713H30.9879V7.4259H33.1477L33.1564 7.48601C33.172 7.59739 33.1877 7.71231 33.1877 7.81839C33.1877 8.42835 33.0068 8.92162 32.6486 9.28582C32.2417 9.71721 31.7095 9.93644 31.0661 9.93644ZM56.0397 9.84274H55.3737L53.3338 6.52423L53.3512 7.12181V9.84097H52.6852V5.44752H53.4451L53.466 5.48111L55.3841 8.60692L55.3667 8.0111V5.44752H56.0397V9.84274ZM44.8441 9.84274H44.1694V6.10875H42.999V5.44752H46.0127V6.10875H44.8424V9.84274H44.8441ZM42.4495 9.84274H41.7765V5.44752H42.4495V9.84274ZM38.6672 9.84274H37.9942V6.10875H36.8239V5.44752H39.8376V6.10875H38.6672V9.84274ZM36.3978 9.83567H33.8172V5.44752H36.3978V6.10875H34.4919V7.31452H36.2118V7.96867H34.4919V9.17444H36.3978V9.83567ZM48.7585 8.81554C49.0594 9.1214 49.4246 9.27522 49.8489 9.27522C50.2854 9.27522 50.6419 9.12494 50.9392 8.81554C51.2349 8.51498 51.3844 8.12072 51.3844 7.64513C51.3844 7.16954 51.2349 6.77351 50.941 6.47472C50.6401 6.16886 50.2732 6.01505 49.8506 6.01505C49.4141 6.01505 49.0577 6.16532 48.762 6.47472C48.4664 6.77528 48.3168 7.16954 48.3168 7.64513C48.3168 8.12072 48.4647 8.51675 48.7585 8.81554Z" fill="white"/>
<path fill-rule="evenodd" clip-rule="evenodd" d="M47.5616 15.9794C45.9183 15.9794 44.5862 17.2471 44.5862 18.9956C44.5862 20.7282 45.927 22.0118 47.5616 22.0118C49.205 22.0118 50.537 20.7353 50.537 18.9956C50.537 17.2471 49.205 15.9794 47.5616 15.9794ZM47.5616 20.8166C46.6626 20.8166 45.8887 20.0599 45.8887 18.9885C45.8887 17.9012 46.6643 17.1604 47.5616 17.1604C48.4607 17.1604 49.2345 17.9012 49.2345 18.9885C49.2363 20.067 48.4607 20.8166 47.5616 20.8166ZM41.0699 15.9794C39.4266 15.9794 38.0945 17.2471 38.0945 18.9956C38.0945 20.7282 39.4353 22.0118 41.0699 22.0118C42.7133 22.0118 44.0454 20.7353 44.0454 18.9956C44.0454 17.2471 42.7116 15.9794 41.0699 15.9794ZM41.0699 20.8166C40.1709 20.8166 39.397 20.0599 39.397 18.9885C39.397 17.9012 40.1726 17.1604 41.0699 17.1604C41.969 17.1604 42.7429 17.9012 42.7429 18.9885C42.7429 20.067 41.969 20.8166 41.0699 20.8166ZM33.3453 16.9005V18.177H36.359C36.2668 18.8931 36.0338 19.4217 35.6773 19.7841C35.2356 20.2332 34.5539 20.7212 33.3523 20.7212C31.5002 20.7212 30.0516 19.2007 30.0516 17.3178C30.0516 15.4349 31.5002 13.9144 33.3523 13.9144C34.3522 13.9144 35.0808 14.3158 35.6217 14.8285L36.512 13.9233C35.7608 13.1913 34.7608 12.6309 33.3592 12.6309C30.8185 12.6309 28.6865 14.7348 28.6865 17.3107C28.6865 19.8938 30.8168 21.9906 33.3592 21.9906C34.7313 21.9906 35.7608 21.5344 36.5746 20.6752C37.4041 19.8319 37.6667 18.642 37.6667 17.682C37.6667 17.3832 37.6441 17.1145 37.5972 16.8864H33.3436C33.3453 16.8846 33.3453 16.9005 33.3453 16.9005ZM64.9412 17.8942C64.6925 17.217 63.9412 15.9724 62.4005 15.9724C60.8737 15.9724 59.6042 17.194 59.6042 18.9885C59.6042 20.6823 60.8597 22.0047 62.5483 22.0047C63.9047 22.0047 64.6942 21.1614 65.0194 20.6664L64.0126 19.9804C63.6787 20.4843 63.2144 20.8149 62.5553 20.8149C61.8892 20.8149 61.4232 20.5072 61.1136 19.9008L65.0803 18.2301C65.0803 18.2318 64.9412 17.8942 64.9412 17.8942ZM60.8963 18.9019C60.865 17.7368 61.7866 17.1445 62.4457 17.1445C62.9657 17.1445 63.3987 17.4044 63.5465 17.7828L60.8963 18.9019ZM57.6739 21.8244H58.9764V12.9632H57.6739V21.8244ZM55.5349 16.6495H55.488C55.1941 16.2941 54.6359 15.9724 53.9229 15.9724C52.443 15.9724 51.0796 17.2966 51.0796 18.9974C51.0796 20.6911 52.436 21.9994 53.9229 21.9994C54.6272 21.9994 55.1941 21.6759 55.488 21.3134H55.5349V21.7466C55.5349 22.8976 54.9298 23.5181 53.9542 23.5181C53.156 23.5181 52.6604 22.9347 52.4586 22.4467L51.3266 22.9276C51.6517 23.7232 52.5195 24.708 53.9524 24.708C55.4793 24.708 56.7731 23.7939 56.7731 21.5645V16.1527H55.5419V16.6495C55.5436 16.6495 55.5349 16.6495 55.5349 16.6495ZM54.0394 20.8166C53.1403 20.8166 52.3891 20.0529 52.3891 18.9974C52.3891 17.9331 53.1403 17.1622 54.0394 17.1622C54.9298 17.1622 55.6201 17.9419 55.6201 18.9974C55.6288 20.0529 54.9315 20.8166 54.0394 20.8166ZM71.0398 12.9632H67.9253V21.8244H69.2278V18.4688H71.0416C72.4832 18.4688 73.9005 17.4062 73.9005 15.7195C73.9005 14.0329 72.4884 12.9632 71.0398 12.9632ZM71.0781 17.2312H69.2261V14.1902H71.0781C72.0537 14.1902 72.6049 15.0088 72.6049 15.7107C72.6049 16.4055 72.0467 17.2312 71.0781 17.2312ZM79.121 15.9635C78.175 15.9635 77.1994 16.3896 76.7959 17.3178L77.9506 17.8058C78.1993 17.3178 78.6549 17.1516 79.1366 17.1516C79.8114 17.1516 80.493 17.5618 80.5087 18.2937V18.3874C80.2757 18.2531 79.7644 18.048 79.1523 18.048C77.9054 18.048 76.6412 18.741 76.6412 20.0405C76.6412 21.2303 77.6637 21.9941 78.8027 21.9941C79.6775 21.9941 80.1592 21.5928 80.46 21.1278H80.507V21.8138H81.7625V18.4193C81.7625 16.8387 80.6078 15.9635 79.121 15.9635ZM78.9575 20.8166C78.5315 20.8166 77.935 20.6045 77.935 20.0599C77.935 19.374 78.6793 19.1141 79.314 19.1141C79.8879 19.1141 80.1592 19.2396 80.5 19.4129C80.4061 20.2085 79.7453 20.8096 78.9575 20.8166ZM86.343 16.1527L84.8475 19.9963H84.8005L83.2511 16.1527H81.8495L84.1745 21.5256L82.8494 24.5117H84.2058L87.7829 16.1527H86.343ZM74.6187 21.8244H75.9212V12.9632H74.6187V21.8244Z" fill="white"/>
<path fill-rule="evenodd" clip-rule="evenodd" d="M7.32703 5.89686C7.1253 6.11786 7.00879 6.45554 7.00879 6.89754V22.5743C7.00879 23.0163 7.1253 23.354 7.33398 23.5661L7.38789 23.6139L16.0272 14.8305V14.6342L7.38093 5.84912L7.32703 5.89686Z" fill="url(#paint0_linear_2270_506)"/>
<path fill-rule="evenodd" clip-rule="evenodd" d="M18.9011 17.7668L16.0195 14.8373V14.6322L18.9011 11.7026L18.9637 11.7415L22.3721 13.7111C23.3477 14.2698 23.3477 15.1926 22.3721 15.7584L18.9637 17.7279L18.9011 17.7668Z" fill="url(#paint1_linear_2270_506)"/>
<path fill-rule="evenodd" clip-rule="evenodd" d="M18.9645 17.7281L16.0204 14.7349L7.32715 23.573C7.64538 23.9196 8.17926 23.9585 8.77573 23.6208L18.9645 17.7281Z" fill="url(#paint2_linear_2270_506)"/>
<path fill-rule="evenodd" clip-rule="evenodd" d="M18.9645 11.7417L8.77573 5.85786C8.17926 5.51134 7.64365 5.55907 7.32715 5.9056L16.0204 14.7349L18.9645 11.7417Z" fill="url(#paint3_linear_2270_506)"/>
<path opacity="0.2" fill-rule="evenodd" clip-rule="evenodd" d="M18.9019 17.6646L8.78258 23.5095C8.2174 23.8401 7.71309 23.8171 7.38789 23.5166L7.33398 23.5714L7.38789 23.6191C7.71309 23.9179 8.2174 23.9427 8.78258 23.612L18.9714 17.7282L18.9019 17.6646Z" fill="black"/>
<path opacity="0.12" fill-rule="evenodd" clip-rule="evenodd" d="M22.3723 15.656L18.8926 17.6644L18.9552 17.7281L22.3636 15.7585C22.8523 15.4757 23.0923 15.1044 23.0923 14.7349C23.0627 15.0743 22.814 15.3961 22.3723 15.656Z" fill="black"/>
<path opacity="0.25" fill-rule="evenodd" clip-rule="evenodd" d="M8.77561 5.96056L22.3728 13.814C22.8145 14.0668 23.0632 14.3974 23.1015 14.7351C23.1015 14.3656 22.8615 13.9943 22.3728 13.7114L8.77561 5.85802C7.80003 5.2905 7.00879 5.76432 7.00879 6.8976V7.00014C7.00879 5.86509 7.80003 5.40011 8.77561 5.96056Z" fill="white"/>
</g>
<defs>
<linearGradient id="paint0_linear_2270_506" x1="15.2523" y1="6.7284" x2="1.38366" y2="10.3631" gradientUnits="userSpaceOnUse">
<stop stop-color="#00A0FF"/>
<stop offset="0.00657" stop-color="#00A1FF"/>
<stop offset="0.2601" stop-color="#00BEFF"/>
<stop offset="0.5122" stop-color="#00D2FF"/>
<stop offset="0.7604" stop-color="#00DFFF"/>
<stop offset="1" stop-color="#00E3FF"/>
</linearGradient>
<linearGradient id="paint1_linear_2270_506" x1="23.6444" y1="14.7348" x2="6.77089" y2="14.7348" gradientUnits="userSpaceOnUse">
<stop stop-color="#FFE000"/>
<stop offset="0.4087" stop-color="#FFBD00"/>
<stop offset="0.7754" stop-color="#FFA500"/>
<stop offset="1" stop-color="#FF9C00"/>
</linearGradient>
<linearGradient id="paint2_linear_2270_506" x1="17.3636" y1="16.3636" x2="5.98031" y2="35.2085" gradientUnits="userSpaceOnUse">
<stop stop-color="#FF3A44"/>
<stop offset="1" stop-color="#C31162"/>
</linearGradient>
<linearGradient id="paint3_linear_2270_506" x1="5.13809" y1="0.682423" x2="10.2167" y2="9.09896" gradientUnits="userSpaceOnUse">
<stop stop-color="#32A071"/>
<stop offset="0.0685" stop-color="#2DA771"/>
<stop offset="0.4762" stop-color="#15CF74"/>
<stop offset="0.8009" stop-color="#06E775"/>
<stop offset="1" stop-color="#00F076"/>
</linearGradient>
<clipPath id="clip0_2270_506">
<rect width="94.5284" height="28.3585" fill="white" transform="translate(0.0507812 0.555664)"/>
</clipPath>
</defs>
</svg>
