<svg width="121" height="17" viewBox="0 0 121 17" fill="none" xmlns="http://www.w3.org/2000/svg">
<path d="M0.519531 13.2707C0.519531 14.6995 1.40857 15.6719 2.74214 15.6719H3.34127V11.703L6.08571 8.8653L9.69986 14.5606C10.2024 15.3742 10.9754 15.8108 11.7678 15.8108C12.1737 15.8108 12.5796 15.6917 12.9661 15.4933L13.5266 15.1956L7.9411 6.98009L12.9661 1.78089H9.44861L3.34127 7.93262V1.78089H0.519531V13.2707Z" fill="black"/>
<path d="M14.0099 9.71861C14.0099 13.8264 17.4308 15.8902 20.871 15.8902C24.2919 15.8902 27.7128 13.8264 27.7128 9.71861V7.63496C27.7128 3.52719 24.2919 1.46338 20.871 1.46338C17.4308 1.46338 14.0099 3.52719 14.0099 7.63496V9.71861ZM16.8317 7.63496C16.8317 5.43224 18.8417 4.32096 20.871 4.32096C22.881 4.32096 24.891 5.43224 24.891 7.63496V9.71861C24.891 11.9213 22.881 13.0128 20.871 13.0128C18.8417 13.0128 16.8317 11.9213 16.8317 9.71861V7.63496Z" fill="black"/>
<path d="M30.6425 13.2707C30.6425 14.6995 31.5315 15.6719 32.8651 15.6719H33.4642V11.703L36.2087 8.8653L39.8228 14.5606C40.3253 15.3742 41.0984 15.8108 41.8908 15.8108C42.2967 15.8108 42.7025 15.6917 43.0891 15.4933L43.6496 15.1956L38.064 6.98009L43.0891 1.78089H39.5716L33.4642 7.93262V1.78089H30.6425V13.2707Z" fill="black"/>
<path d="M76.6127 15.1163L73.0179 10.1155C74.8926 9.42094 75.8203 7.71433 75.8203 6.04741C75.8203 3.94392 74.3514 1.84042 71.6457 1.78089H63.8569V13.2509C63.8569 14.6995 64.7653 15.6719 66.0988 15.6719H66.6786V10.3139H70.0029L72.6507 14.3225C73.2112 15.1559 74.0422 15.6124 74.9119 15.6124C75.2791 15.6124 75.6657 15.533 76.0329 15.3742L76.6127 15.1163ZM66.6786 4.26142H70.8726C72.2062 4.26142 72.8633 5.15442 72.8633 6.04741C72.8633 6.9404 72.2062 7.8334 70.8726 7.8334H66.6786V4.26142Z" fill="black"/>
<path d="M78.0834 9.71861C78.0834 13.8264 81.5042 15.8902 84.9445 15.8902C88.3653 15.8902 91.7862 13.8264 91.7862 9.71861V7.63496C91.7862 3.52719 88.3653 1.46338 84.9445 1.46338C81.5042 1.46338 78.0834 3.52719 78.0834 7.63496V9.71861ZM80.9051 7.63496C80.9051 5.43224 82.9151 4.32096 84.9445 4.32096C86.9545 4.32096 88.9645 5.43224 88.9645 7.63496V9.71861C88.9645 11.9213 86.9545 13.0128 84.9445 13.0128C82.9151 13.0128 80.9051 11.9213 80.9051 9.71861V7.63496Z" fill="black"/>
<path d="M94.0885 9.71861C94.0885 13.8264 97.5094 15.8902 100.95 15.8902C104.371 15.8902 107.791 13.8264 107.791 9.71861V7.63496C107.791 3.52719 104.371 1.46338 100.95 1.46338C97.5094 1.46338 94.0885 3.52719 94.0885 7.63496V9.71861ZM96.9103 7.63496C96.9103 5.43224 98.9203 4.32096 100.95 4.32096C102.96 4.32096 104.97 5.43224 104.97 7.63496V9.71861C104.97 11.9213 102.96 13.0128 100.95 13.0128C98.9203 13.0128 96.9103 11.9213 96.9103 9.71861V7.63496Z" fill="black"/>
<path d="M116.558 4.24158L108.479 13.0723V13.1715C108.479 14.6797 109.407 15.6719 110.779 15.6719H120.056V13.1914H111.513L119.418 4.36065V1.78089H108.653V1.9198C108.653 3.3089 109.523 4.24158 110.818 4.24158H116.558Z" fill="black"/>
<path d="M53.0754 16.7034C57.4932 16.7034 61.0745 13.1096 61.0745 8.6765C61.0745 4.2434 57.4932 0.649653 53.0754 0.649653C48.6575 0.649653 45.0762 4.2434 45.0762 8.6765C45.0762 13.1096 48.6575 16.7034 53.0754 16.7034Z" fill="#FDD400"/>
<path d="M57.6548 2.09743C58.5625 3.39965 59.0967 4.98253 59.0967 6.69267C59.0967 11.1258 55.5153 14.7195 51.0975 14.7195C49.3941 14.7195 47.8158 14.1835 46.5181 13.2726C47.9644 15.3462 50.3609 16.7042 53.0745 16.7042C57.4923 16.7042 61.0737 13.1105 61.0737 8.67737C61.0737 5.9544 59.7204 3.5487 57.6539 2.0983L57.6548 2.09743Z" fill="#FFB600"/>
<path d="M60.2424 5.11328C59.4598 5.03919 58.4739 4.97381 57.4932 4.98602C56.3353 4.99996 55.5301 5.1586 54.883 5.28586C54.3696 5.38697 53.9249 5.47413 53.4602 5.46019C52.9937 5.44624 52.5568 5.33293 52.0495 5.20131C51.4111 5.0357 50.6171 4.83 49.461 4.74719C48.2093 4.65741 46.942 4.69315 46.1055 4.7376C45.8388 5.21177 45.6182 5.7147 45.4514 6.24204C45.4922 6.31177 45.5287 6.40155 45.5426 6.52009C45.5522 6.59592 45.56 6.70923 45.5704 6.85218C45.6156 7.46319 45.6998 8.60154 46.0456 9.18989C46.4634 9.8994 47.4458 10.3291 48.7392 10.3675C50.063 10.4067 51.0714 10.2437 51.6951 9.32064C52.2528 8.4952 52.5759 7.63403 52.7314 7.21914C52.7531 7.16248 52.7713 7.1128 52.787 7.07183C52.9103 6.75543 53.1579 6.73538 53.4211 6.7441C53.6851 6.75194 53.9301 6.78594 54.0343 7.10931C54.0474 7.15115 54.063 7.2017 54.0812 7.2601C54.2115 7.68284 54.4834 8.56232 54.9915 9.41826C55.5605 10.3771 56.5586 10.5993 57.8815 10.6385C57.9431 10.6403 58.0031 10.6412 58.063 10.6412C59.2687 10.6412 60.2024 10.2742 60.6394 9.6231C60.8357 9.33023 60.9712 8.88657 61.0667 8.44203C61.0329 7.24877 60.7401 6.12001 60.2415 5.1124L60.2424 5.11328Z" fill="#FFB600"/>
<path d="M53.0754 16.9204C48.5455 16.9204 44.8599 13.2221 44.8599 8.6765C44.8599 4.13095 48.5455 0.432617 53.0754 0.432617C57.6052 0.432617 61.2908 4.13095 61.2908 8.6765C61.2908 13.2221 57.6052 16.9204 53.0754 16.9204ZM53.0754 0.867561C48.7843 0.867561 45.2933 4.37065 45.2933 8.6765C45.2933 12.9824 48.7843 16.4854 53.0754 16.4854C57.3664 16.4854 60.8574 12.9824 60.8574 8.6765C60.8574 4.37065 57.3664 0.867561 53.0754 0.867561Z" fill="#1A0F09"/>
<path d="M48.9572 10.629C48.9572 12.9118 50.8013 14.7614 53.0754 14.7614C55.3494 14.7614 57.1935 12.9109 57.1935 10.629H48.9572Z" fill="#1A0F09"/>
<path d="M55.5509 13.9316C54.8621 13.4103 54.0048 13.1018 53.0754 13.1018C52.1459 13.1018 51.2886 13.4112 50.5998 13.9316C51.2886 14.4528 52.1459 14.7614 53.0754 14.7614C54.0048 14.7614 54.8621 14.4519 55.5509 13.9316Z" fill="#E70000"/>
<path d="M53.0754 12.1325C54.7935 12.1325 56.265 11.511 56.8826 10.629H49.2682C49.8858 11.511 51.3572 12.1325 53.0754 12.1325Z" fill="#FBFBFB"/>
<path d="M49.2682 10.629C49.3959 10.812 49.5626 10.9828 49.7581 11.1397H55.1913C54.8891 11.5721 54.314 11.9198 53.5931 12.1125C55.0845 12.0018 56.3284 11.4221 56.8834 10.629H49.2682Z" fill="#DEDFDF"/>
<path d="M53.0754 14.9069C50.7249 14.9069 48.8121 12.9876 48.8121 10.629V10.4843H57.3377V10.629C57.3377 12.9876 55.425 14.9069 53.0745 14.9069H53.0754ZM49.104 10.7745C49.1804 12.9065 50.9325 14.6175 53.0754 14.6175C55.2183 14.6175 56.9703 12.9065 57.0467 10.7745H49.104Z" fill="#1A0F09"/>
<path d="M51.7472 2.17065C51.6708 1.90132 51.3902 1.74529 51.1218 1.822C49.1292 2.39292 47.4883 3.80583 46.6197 5.69814C46.5025 5.95266 46.6136 6.25424 46.8673 6.37191C46.9359 6.40329 47.008 6.41898 47.0784 6.41898C47.2695 6.41898 47.4527 6.30915 47.5379 6.1235C48.2831 4.49965 49.6903 3.28808 51.3989 2.7991C51.6673 2.72239 51.8228 2.44086 51.7464 2.17152L51.7472 2.17065Z" fill="#FFE977"/>
<path d="M60.9104 4.72453C60.1382 4.62603 58.6198 4.46304 57.1171 4.48221C55.9592 4.49616 55.154 4.6548 54.5069 4.78206C53.9935 4.88317 53.5488 4.97033 53.084 4.95638C52.6176 4.94244 52.1798 4.82912 51.6734 4.69751C51.035 4.5319 50.241 4.32619 49.0858 4.24339C47.5865 4.13618 46.0603 4.20852 45.2846 4.26082C45.0432 4.27738 44.8547 4.4735 44.8477 4.71668L44.8312 5.25535C44.8277 5.38697 44.8816 5.51771 44.9806 5.61446C45.0518 5.68419 45.1413 5.80971 45.1665 6.01716C45.1761 6.09299 45.1839 6.2063 45.1943 6.34925C45.2395 6.96113 45.3237 8.09948 45.6694 8.68696C46.0872 9.39647 47.0697 9.82619 48.3631 9.86454C49.686 9.90376 50.6953 9.74076 51.3199 8.81771C51.8775 7.99314 52.2006 7.1311 52.3553 6.71708C52.377 6.65955 52.3952 6.61074 52.4109 6.56977C52.5342 6.25337 52.7809 6.23332 53.045 6.24204C53.309 6.24988 53.554 6.28388 53.6582 6.60725C53.6712 6.64909 53.6869 6.69964 53.7051 6.75804C53.8354 7.18078 54.1073 8.06026 54.6154 8.9162C55.1844 9.87412 56.1816 10.0973 57.5054 10.1365C57.5662 10.1382 57.627 10.1391 57.686 10.1391C58.8926 10.1391 59.8263 9.77214 60.2632 9.12104C60.6437 8.55447 60.794 7.4231 60.8756 6.81557C60.8947 6.6735 60.9095 6.56105 60.9234 6.48609C60.9608 6.28039 61.058 6.1601 61.1327 6.09473C61.237 6.00408 61.2995 5.87682 61.303 5.74521L61.3186 5.20654C61.3256 4.96336 61.1492 4.75591 60.9095 4.7254L60.9104 4.72453Z" fill="#1A0F09"/>
<path d="M49.0354 4.65654C48.6428 4.63214 48.2727 4.61383 47.934 4.61034L46.8621 9.18467C47.1991 9.35986 47.6126 9.46794 48.0608 9.50891L49.1952 4.66787C49.1422 4.66351 49.0892 4.66003 49.0362 4.65654H49.0354Z" fill="#3F3F3F"/>
<path d="M48.7557 9.52286C49.1031 9.50891 49.4471 9.46795 49.7694 9.3773L50.8022 4.9712C50.5303 4.87706 50.2167 4.80298 49.8745 4.74806L48.7557 9.52286Z" fill="#3F3F3F"/>
<path d="M58.6276 4.94156L57.4897 9.79742C57.8398 9.81311 58.1785 9.78783 58.4869 9.72333L59.5666 5.11502C59.3138 5.02786 58.9959 4.97381 58.6276 4.94156Z" fill="#3F3F3F"/>
<path d="M57.1423 4.89711C56.979 4.89711 56.8183 4.90234 56.6611 4.91106L55.6256 9.3311C55.9766 9.54378 56.3831 9.66319 56.807 9.73031L57.9379 4.90496C57.686 4.89798 57.4202 4.89624 57.1431 4.89711H57.1423Z" fill="#3F3F3F"/>
</svg>
