<svg width="116" height="88" viewBox="0 0 116 88" fill="none" xmlns="http://www.w3.org/2000/svg">
<path d="M50.9979 35.2408L47.9316 31.5823C51.8507 28.188 51.1603 22.9034 48.2768 20.1799C45.3121 17.375 40.6823 17.3547 37.7379 20.1799C34.2859 23.4725 34.7123 28.7368 38.0831 31.5823L35.0169 35.2408C29.9403 31.0335 29.0672 23.249 33.2706 18.0051C38.4283 11.5823 48.1144 11.7856 52.9879 18.3709C56.8257 23.4929 56.1556 30.8912 50.9979 35.2408Z" fill="#0A1F8F"/>
<path d="M54.4291 39.3065C47.8499 44.835 38.2044 44.835 31.6455 39.3065L35.0569 35.2212C39.6665 39.1033 46.4081 39.1033 51.0176 35.2212L54.4291 39.3065Z" fill="#FF4713"/>
<path d="M71.609 33.1269C70.1876 33.5131 67.5478 33.574 67.5478 30.8098V0.952148H61.6387V31.1147C61.6387 38.2692 68.2179 38.1472 68.9286 38.1472C69.9845 38.1472 70.9998 37.9846 71.9948 37.6594L71.609 33.1269Z" fill="#0A1F8F"/>
<path d="M87.4879 33.1269C86.0665 33.5131 83.4267 33.574 83.4267 30.8098V0.952148H77.5176V31.1147C77.5176 38.2692 84.0968 38.1472 84.8075 38.1472C85.8634 38.1472 86.8787 37.9846 87.8737 37.6594L87.4879 33.1269Z" fill="#0A1F8F"/>
<path d="M24.2753 5.30193L20.742 9.50924C16.7011 4.65153 8.21306 5.97266 8.21306 11.6027C8.21306 14.7735 11.259 15.7694 12.0103 16.0539C12.985 16.4198 18.0006 17.8426 20.3156 19.1637C24.1534 21.3385 25.0063 25.3019 25.0063 27.1515C25.0063 30.7287 23.6661 33.6759 21.3512 35.7287C17.3712 39.2856 7.0556 40.8506 0.557617 33.5336L4.29396 29.0824C5.95907 31.1352 8.84256 33.0255 12.4164 33.0255C14.9141 33.0255 18.7317 31.7856 18.7114 27.8629C18.7114 25.3832 17.0463 24.0621 14.6501 23.1677C13.7364 22.8222 9.35021 21.4808 7.50234 20.5865C1.95875 17.9239 1.83691 13.6556 1.83691 11.4198C1.83691 9.18404 3.05528 6.05396 5.67478 4.08242C13.3505 -1.71025 21.6964 2.70031 24.2753 5.30193Z" fill="#0A1F8F"/>
<path d="M103.307 18.9193C107.063 18.9193 110.109 21.9681 110.109 25.7282C110.109 29.4884 107.063 32.5372 103.307 32.5372C99.5499 32.5372 96.5039 29.4884 96.5039 25.7282C96.5039 21.9681 99.5499 18.9193 103.307 18.9193ZM103.307 13.3096C96.443 13.3096 90.8994 18.8787 90.8994 25.7282C90.8994 32.5982 96.4633 38.1469 103.307 38.1469C110.17 38.1469 115.714 32.5778 115.714 25.7282C115.734 18.8787 110.17 13.3096 103.307 13.3096Z" fill="#0A1F8F"/>
<path d="M2.75076 58.8588C3.2178 58.0458 3.84729 57.3954 4.67985 56.9279C5.49209 56.4604 6.40588 56.2368 7.40088 56.2368C8.39589 56.2368 9.28936 56.4604 10.1016 56.9279C10.9139 57.3954 11.5637 58.0254 12.0307 58.8588C12.4977 59.6718 12.7211 60.5661 12.7211 61.562C12.7211 62.5579 12.4774 63.4523 12.0104 64.2653C11.5434 65.0783 10.8936 65.7287 10.0813 66.1961C9.26906 66.6636 8.37559 66.9075 7.38058 66.9075C6.38558 66.9075 5.47179 66.684 4.65954 66.2165C3.8473 65.749 3.1975 65.0986 2.73046 64.2856C2.26341 63.4726 2.04004 62.558 2.04004 61.5823C2.06035 60.5661 2.28371 59.6718 2.75076 58.8588ZM3.42087 63.8791C3.827 64.5701 4.37526 65.1189 5.06567 65.5254C5.75608 65.9319 6.52772 66.1352 7.38058 66.1352C8.23344 66.1352 9.00507 65.9319 9.69548 65.5254C10.3859 65.1189 10.9342 64.5701 11.3403 63.8791C11.7464 63.188 11.9495 62.4157 11.9495 61.562C11.9495 60.7084 11.7464 59.936 11.3403 59.245C10.9342 58.5539 10.3859 58.0051 9.69548 57.5986C9.00507 57.1921 8.23344 56.9889 7.38058 56.9889C6.52772 56.9889 5.75608 57.1921 5.04537 57.5986C4.35496 58.0051 3.78638 58.5539 3.38026 59.245C2.97413 59.936 2.77107 60.7084 2.77107 61.562C2.81168 62.4157 3.01475 63.188 3.42087 63.8791Z" fill="#0A1F8F"/>
<path d="M22.4273 56.908C23.1786 57.3552 23.7675 58.0056 24.194 58.8186C24.6204 59.6316 24.8234 60.5462 24.8234 61.5625C24.8234 62.5787 24.6001 63.4934 24.1533 64.3064C23.7066 65.1194 23.0771 65.7495 22.2852 66.1966C21.4932 66.6438 20.5795 66.8877 19.5641 66.8877C18.9346 66.8877 18.3052 66.7454 17.696 66.4609C17.0868 66.1763 16.5791 65.8308 16.1527 65.4039V70.4446H15.4014V56.4202H15.8075C16.0309 56.4202 16.1527 56.5828 16.1527 56.8877V58.0666C17.168 56.8674 18.4067 56.2576 19.889 56.2576C20.8231 56.2373 21.676 56.4609 22.4273 56.908ZM21.879 65.5462C22.5695 65.16 23.0974 64.6113 23.5035 63.8999C23.8894 63.2088 24.0924 62.4161 24.0924 61.5422C24.0924 60.6682 23.9097 59.8958 23.5442 59.1844C23.1786 58.4934 22.671 57.9446 22.0212 57.5584C21.3714 57.1722 20.6404 56.969 19.8281 56.969C19.0362 56.969 18.3661 57.1519 17.7772 57.5178C17.1883 57.8836 16.6603 58.3714 16.173 58.9609V64.408C16.3355 64.6519 16.5994 64.9161 16.9649 65.2007C17.3304 65.4649 17.7366 65.6885 18.2036 65.8714C18.6707 66.0543 19.1377 66.1356 19.5844 66.1356C20.417 66.1356 21.1886 65.9527 21.879 65.5462Z" fill="#0A1F8F"/>
<path d="M34.1643 56.8878C34.8953 57.3146 35.4639 57.9244 35.87 58.6968C36.2761 59.4691 36.4792 60.3431 36.4792 61.339C36.4792 61.4406 36.4386 61.5423 36.3777 61.6236C36.2965 61.7049 36.2152 61.7455 36.1137 61.7455H27.4226C27.4632 62.5992 27.6663 63.3715 28.0724 64.0423C28.4583 64.713 28.9862 65.2415 29.6563 65.6073C30.3264 65.9732 31.0574 66.1764 31.89 66.1764C32.3164 66.1764 32.7429 66.0951 33.2099 65.9528C33.6769 65.7902 34.0831 65.587 34.4283 65.3228C34.5095 65.2618 34.611 65.2415 34.7126 65.2415C34.8547 65.2415 34.9765 65.3024 35.0578 65.4041L35.2405 65.6683C34.8141 66.0545 34.2861 66.3593 33.677 66.5829C33.0678 66.8268 32.4586 66.9284 31.89 66.9284C30.895 66.9284 30.0218 66.7049 29.2299 66.2374C28.4379 65.7699 27.8288 65.1398 27.382 64.3065C26.9353 63.4935 26.7119 62.5585 26.7119 61.5016C26.7119 60.5057 26.9353 59.6114 27.3617 58.7984C27.7881 58.0057 28.377 57.3756 29.1487 56.9285C29.9 56.4813 30.7732 56.2577 31.7275 56.2577C32.6007 56.2374 33.4333 56.4407 34.1643 56.8878ZM35.7482 60.9935C35.7076 60.2008 35.5045 59.5098 35.139 58.9C34.7735 58.2902 34.3064 57.8228 33.6973 57.4772C33.1084 57.1317 32.4383 56.9691 31.6869 56.9691C30.9153 56.9691 30.2046 57.152 29.5751 57.4976C28.9456 57.8634 28.4379 58.3512 28.0521 58.9813C27.6663 59.6114 27.4429 60.3228 27.4023 61.1154H27.4429C27.5242 61.0138 27.646 60.9732 27.8288 60.9732H35.7482V60.9935Z" fill="#0A1F8F"/>
<path d="M46.2064 57.2938C46.7952 58.0052 47.0998 59.0417 47.0998 60.4239V66.7247H46.3485V60.4848C46.3485 59.2856 46.1048 58.3913 45.6175 57.8426C45.1301 57.2735 44.4194 56.9889 43.4853 56.9889C42.1451 56.9889 40.9268 57.5987 39.8099 58.8182V66.745H39.0586V56.4198H39.4647C39.5866 56.4198 39.6678 56.4604 39.7287 56.5417C39.7896 56.623 39.8099 56.745 39.8099 56.8669V57.9442C40.2973 57.4361 40.8455 57.0295 41.4953 56.7247C42.1451 56.3995 42.8355 56.2572 43.6072 56.2572C44.724 56.2369 45.5972 56.5824 46.2064 57.2938Z" fill="#0A1F8F"/>
<path d="M50.7751 66.501C50.1863 66.2368 49.7192 65.9116 49.374 65.5051L49.5365 65.2815C49.5974 65.1799 49.7192 65.1189 49.8817 65.1189C50.0035 65.1189 50.1254 65.1596 50.2472 65.2612C50.5112 65.5051 50.8564 65.7083 51.3234 65.8913C51.7702 66.0539 52.2169 66.1555 52.6433 66.1555C53.1307 66.1555 53.5774 66.0742 53.9632 65.8913C54.349 65.7083 54.6333 65.4644 54.8567 65.1189C55.0801 64.7937 55.1816 64.4075 55.1816 63.9604C55.1816 63.4523 54.9785 63.0051 54.5724 62.6392C54.1663 62.2531 53.4759 61.8872 52.5215 61.501C51.892 61.2571 51.3843 60.9929 51.0188 60.7287C50.6533 60.4645 50.4096 60.1799 50.2472 59.875C50.105 59.5701 50.0238 59.2246 50.0238 58.8181C50.0238 58.31 50.1457 57.8628 50.3893 57.4767C50.633 57.0905 50.9782 56.7856 51.4249 56.562C51.8717 56.3384 52.3996 56.2368 52.9885 56.2368C53.4353 56.2368 53.9023 56.3384 54.3693 56.5214C54.8364 56.7043 55.2425 56.9685 55.5471 57.2734L55.405 57.497C55.3237 57.6393 55.2019 57.7002 55.0394 57.7002C54.9379 57.7002 54.8364 57.6596 54.7349 57.5986C54.4709 57.3954 54.2069 57.2531 53.9023 57.1311C53.5977 57.0295 53.2931 56.9685 53.0088 56.9685C52.5621 56.9685 52.1763 57.0498 51.8311 57.1921C51.4859 57.3547 51.2422 57.558 51.0594 57.8425C50.8767 58.1271 50.7955 58.4319 50.7955 58.7978C50.7955 59.2246 50.9376 59.5701 51.2219 59.875C51.5062 60.1799 52.0341 60.4645 52.7652 60.7693C53.5165 61.0742 54.1257 61.3588 54.5927 61.684C55.0598 61.9888 55.405 62.3344 55.608 62.7002C55.8314 63.0661 55.9329 63.4726 55.9329 63.9401C55.9329 64.5092 55.7908 65.0173 55.5065 65.4644C55.2222 65.9116 54.8364 66.2571 54.3287 66.501C53.8211 66.7449 53.2322 66.8669 52.5824 66.8669C51.9732 66.8872 51.364 66.7653 50.7751 66.501Z" fill="#0A1F8F"/>
<path d="M9.53246 74.1636C10.2635 74.5904 10.8321 75.2002 11.2382 75.9725C11.6443 76.7449 11.8474 77.6189 11.8474 78.6148C11.8474 78.7164 11.8068 78.818 11.7458 78.8993C11.6646 78.9806 11.5834 79.0213 11.4818 79.0213H2.7908C2.83141 79.875 3.03447 80.6473 3.4406 81.318C3.82641 81.9888 4.35437 82.5172 5.02448 82.8831C5.69458 83.2489 6.42561 83.4522 7.25816 83.4522C7.68459 83.4522 8.11102 83.3709 8.57806 83.2286C9.04511 83.066 9.45123 82.8627 9.79644 82.5985C9.87766 82.5375 9.9792 82.5172 10.0807 82.5172C10.2229 82.5172 10.3447 82.5782 10.4259 82.6798L10.6087 82.9441C10.1823 83.3302 9.65429 83.6351 9.0451 83.8587C8.43592 84.1026 7.82673 84.2042 7.25816 84.2042C6.26316 84.2042 5.38999 83.9806 4.59805 83.5132C3.80611 83.0457 3.19692 82.4156 2.75018 81.5823C2.30344 80.7693 2.08008 79.8343 2.08008 78.7774C2.08008 77.7815 2.30345 76.8872 2.72988 76.0741C3.15631 75.2815 3.74519 74.6514 4.51682 74.2042C5.26815 73.7571 6.14132 73.5335 7.09571 73.5335C7.96888 73.5132 8.80143 73.7367 9.53246 74.1636ZM11.1163 78.2896C11.0757 77.4969 10.8727 76.8058 10.5072 76.1961C10.1416 75.5863 9.6746 75.1189 9.06542 74.7733C8.47654 74.4278 7.80643 74.2652 7.0551 74.2652C6.28346 74.2652 5.57275 74.4481 4.94326 74.7937C4.31377 75.1595 3.80611 75.6473 3.4203 76.2774C3.03448 76.9075 2.81111 77.6189 2.77049 78.4115H2.81111C2.89233 78.3099 3.01416 78.2693 3.19692 78.2693H11.1163V78.2896Z" fill="#0A1F8F"/>
<path d="M22.3257 73.6758L17.838 84.001H17.1273L12.6396 73.6758H13.0458C13.1676 73.6758 13.2894 73.7164 13.391 73.7774C13.4925 73.8384 13.5737 73.94 13.6143 74.062L17.4116 82.8831C17.4522 82.9847 17.4725 83.1473 17.4928 83.3709H17.5131C17.5131 83.1676 17.5334 83.005 17.5944 82.8831L21.3713 74.062C21.4322 73.94 21.4932 73.8587 21.5947 73.7774C21.6962 73.7164 21.8181 73.6758 21.9399 73.6758H22.3257Z" fill="#0A1F8F"/>
<path d="M30.4885 74.1636C31.2195 74.5904 31.7881 75.2002 32.1942 75.9725C32.6004 76.7449 32.8034 77.6189 32.8034 78.6148C32.8034 78.7164 32.7628 78.818 32.7019 78.8993C32.6207 78.9806 32.5394 79.0213 32.4379 79.0213H23.7468C23.7875 79.875 23.9905 80.6473 24.3967 81.318C24.7825 81.9888 25.3104 82.5172 25.9805 82.8831C26.6506 83.2489 27.3817 83.4522 28.2142 83.4522C28.6406 83.4522 29.0671 83.3709 29.5341 83.2286C30.0012 83.066 30.4073 82.8627 30.7525 82.5985C30.8337 82.5375 30.9353 82.5172 31.0368 82.5172C31.1789 82.5172 31.3008 82.5782 31.382 82.6798L31.5647 82.9441C31.1383 83.3302 30.6103 83.6351 30.0012 83.8587C29.392 84.1026 28.7828 84.2042 28.2142 84.2042C27.2192 84.2042 26.346 83.9806 25.5541 83.5132C24.7622 83.0457 24.153 82.4156 23.7062 81.5823C23.2595 80.7693 23.0361 79.8343 23.0361 78.7774C23.0361 77.7815 23.2595 76.8872 23.6859 76.0741C24.1124 75.2815 24.7012 74.6514 25.4729 74.2042C26.2242 73.7571 27.0974 73.5335 28.0518 73.5335C28.9249 73.5132 29.7575 73.7367 30.4885 74.1636ZM32.0724 78.2896C32.0318 77.4969 31.8287 76.8058 31.4632 76.1961C31.0977 75.5863 30.6307 75.1189 30.0215 74.7733C29.4326 74.4278 28.7625 74.2652 28.0112 74.2652C27.2395 74.2652 26.5288 74.4481 25.8993 74.7937C25.2698 75.1595 24.7622 75.6473 24.3763 76.2774C23.9905 76.9075 23.7672 77.6189 23.7265 78.4115H23.7672C23.8484 78.3099 23.9702 78.2693 24.153 78.2693H32.0724V78.2896Z" fill="#0A1F8F"/>
<path d="M40.1958 73.5742C40.3785 73.6148 40.541 73.6555 40.6628 73.6961C40.7846 73.7368 40.8659 73.7571 40.9065 73.7774L40.8252 74.0823C40.8049 74.1839 40.744 74.2652 40.6425 74.3262C40.5613 74.3668 40.4394 74.3872 40.3176 74.3872C40.2567 74.3872 40.1551 74.3668 40.0333 74.3465C39.8099 74.3059 39.5866 74.2855 39.3429 74.2855C38.6525 74.2855 38.023 74.4685 37.4747 74.8343C36.9265 75.2002 36.4594 75.6473 36.0736 76.1758V84.0213H35.3223V73.6961H35.6472C35.7893 73.6961 35.8908 73.7368 35.9721 73.8384C36.0533 73.94 36.0939 74.062 36.0939 74.1839V75.3018C36.5203 74.7327 37.028 74.2855 37.5966 73.9807C38.1651 73.6758 38.7946 73.5132 39.4647 73.5132C39.7693 73.5132 40.013 73.5335 40.1958 73.5742Z" fill="#0A1F8F"/>
<path d="M51.7495 73.6764L45.7998 87.3349C45.6983 87.5788 45.4952 87.7008 45.2312 87.7008H44.8251L46.5105 83.9L42.0635 73.6561H42.4696C42.5914 73.6561 42.7133 73.6967 42.8148 73.7577C42.9163 73.8187 42.9976 73.9203 43.0382 74.0422L46.7948 82.8024C46.8151 82.8634 46.8354 82.9243 46.8354 82.9853C46.8354 83.0463 46.8151 83.1479 46.7948 83.2699H46.8151C46.8354 83.2292 46.8557 83.1682 46.8964 83.0666C46.937 82.965 46.9573 82.904 46.9979 82.843L50.7748 74.0219C50.8357 73.9 50.8967 73.8187 50.9982 73.7374C51.0997 73.6764 51.2216 73.6357 51.3434 73.6357H51.7495V73.6764Z" fill="#0A1F8F"/>
<path d="M60.6431 83.2892C60.2979 83.4925 59.8715 83.6957 59.3639 83.8787C58.8562 84.0616 58.3892 84.1632 57.983 84.1632C57.4145 84.1632 56.9271 84.0413 56.4804 83.7974C56.0336 83.5535 55.6884 83.2079 55.4448 82.7405C55.2011 82.273 55.0792 81.7445 55.0792 81.0941V74.3868H53.0283V73.96C53.0283 73.8584 53.0689 73.7771 53.1502 73.7364C53.2314 73.6958 53.3126 73.6754 53.3938 73.6754H55.0792V70.2811C55.0792 70.1389 55.1199 70.0372 55.1808 69.9559C55.262 69.8746 55.3432 69.834 55.4448 69.834H55.8306V73.6958H59.2217V74.4071H55.8306V80.9925C55.8306 81.5006 55.9321 81.9478 56.1149 82.3136C56.2976 82.6795 56.5819 82.964 56.9271 83.147C57.2723 83.3299 57.6581 83.4315 58.1049 83.4315C58.3892 83.4315 58.6734 83.3909 58.9374 83.2892C59.2014 83.1876 59.4857 83.086 59.77 82.9437C59.9324 82.8624 60.0137 82.8218 60.034 82.8218C60.0949 82.8014 60.1558 82.7811 60.1964 82.7811C60.3589 82.7811 60.4604 82.8421 60.501 82.964L60.6431 83.2892Z" fill="#0A1F8F"/>
<path d="M70.0247 74.5704C70.6136 75.2818 70.9182 76.3183 70.9182 77.7005V84.0013H70.1669V77.7614C70.1669 76.5622 69.9232 75.6679 69.4359 75.1192C68.9485 74.5501 68.2378 74.2655 67.3037 74.2655C65.9635 74.2655 64.7451 74.8753 63.6283 76.0948V84.0216H62.877V68.8184H63.6283V75.2208C64.1156 74.7127 64.6639 74.3062 65.3137 74.0013C65.9635 73.6761 66.6539 73.5338 67.4255 73.5338C68.5627 73.5135 69.4359 73.859 70.0247 74.5704Z" fill="#0A1F8F"/>
<path d="M74.188 69.7327C74.3505 69.5701 74.5535 69.4888 74.7769 69.4888C75.0003 69.4888 75.183 69.5701 75.3455 69.7327C75.5079 69.8953 75.5892 70.0985 75.5892 70.3221C75.5892 70.5457 75.5079 70.7489 75.3455 70.9115C75.183 71.0741 74.98 71.1554 74.7769 71.1554C74.5535 71.1554 74.3505 71.0741 74.188 70.9115C74.0256 70.7489 73.9443 70.5457 73.9443 70.3221C73.9443 70.0782 74.0256 69.8953 74.188 69.7327ZM75.1424 84.0009H74.3911V73.6758H75.1424V84.0009Z" fill="#0A1F8F"/>
<path d="M85.8636 74.5706C86.4525 75.282 86.7571 76.3186 86.7571 77.7007V84.0015H86.0058V77.7617C86.0058 76.5625 85.7621 75.6682 85.2747 75.1194C84.7874 74.5503 84.0767 74.2658 83.1426 74.2658C81.8024 74.2658 80.584 74.8755 79.4672 76.095V84.0218H78.7158V73.6966H79.1219C79.2438 73.6966 79.325 73.7373 79.3859 73.8186C79.4469 73.8999 79.4672 74.0219 79.4672 74.1438V75.221C79.9545 74.7129 80.5028 74.3064 81.1526 74.0015C81.8024 73.6763 82.4928 73.5341 83.2644 73.5341C84.4016 73.5137 85.2747 73.8592 85.8636 74.5706Z" fill="#0A1F8F"/>
<path d="M98.9213 73.6758V83.1067C98.9213 84.814 98.5558 86.0335 97.8248 86.7855C97.0938 87.5376 96.0784 87.9034 94.7585 87.9034C94.5555 87.9034 94.4133 87.9034 94.3118 87.8831L90.9003 87.6798V87.3953C90.9003 87.253 90.941 87.1311 91.0222 87.0498C91.1034 86.9684 91.2252 86.9278 91.3877 86.9278L94.3524 87.131C94.5758 87.1514 94.7382 87.1514 94.8194 87.1514C95.8957 87.1514 96.7282 86.8465 97.3171 86.2164C97.906 85.5863 98.1903 84.5294 98.1903 83.0457V82.0701C97.175 83.2693 95.9363 83.879 94.4539 83.879C93.4995 83.879 92.667 83.6555 91.9156 83.2286C91.1643 82.8018 90.5754 82.1717 90.149 81.3994C89.7226 80.6067 89.5195 79.7124 89.5195 78.6961C89.5195 77.6798 89.7429 76.7855 90.1896 75.9929C90.6364 75.2002 91.2659 74.5904 92.0578 74.1636C92.8497 73.7368 93.7635 73.5132 94.7788 73.5132C95.4083 73.5132 96.0175 73.6555 96.6267 73.94C97.2359 74.2246 97.7638 74.5904 98.17 75.0173V74.2449C98.17 74.1229 98.1903 74.001 98.2309 73.8994C98.2715 73.7977 98.3324 73.7164 98.4136 73.6758H98.9213ZM96.5658 82.5985C97.1343 82.2327 97.6826 81.7652 98.17 81.1555V75.9725C98.0075 75.7286 97.7435 75.4644 97.378 75.2002C97.0125 74.936 96.6064 74.7124 96.1597 74.5498C95.6926 74.3668 95.2459 74.2855 94.7788 74.2855C93.9057 74.2855 93.134 74.4685 92.4436 74.8343C91.7532 75.2002 91.2253 75.7286 90.8394 76.3994C90.4536 77.0701 90.2505 77.8425 90.2505 78.7164C90.2505 79.5904 90.4333 80.3628 90.7988 81.0335C91.1643 81.7042 91.672 82.2327 92.3218 82.5985C92.9716 82.9644 93.7026 83.1473 94.5352 83.1473C95.3271 83.1473 95.9972 82.9644 96.5658 82.5985Z" fill="#0A1F8F"/>
</svg>
