<svg width="58" height="20" viewBox="0 0 58 20" fill="none" xmlns="http://www.w3.org/2000/svg">
<path d="M35.8761 16.474C35.1742 16.6647 33.8708 16.6948 33.8708 15.3299V0.587402H30.9531V15.4805C30.9531 19.013 34.2017 18.9528 34.5526 18.9528C35.074 18.9528 35.5753 18.8725 36.0666 18.712L35.8761 16.474Z" fill="#0A1F8F"/>
<path d="M43.7169 16.474C43.0151 16.6647 41.7116 16.6948 41.7116 15.3299V0.587402H38.7939V15.4805C38.7939 19.013 42.0425 18.9528 42.3934 18.9528C42.9148 18.9528 43.4161 18.8725 43.9074 18.712L43.7169 16.474Z" fill="#0A1F8F"/>
<path d="M12.5048 2.73519L10.7602 4.8126C8.76493 2.41405 4.5739 3.06637 4.5739 5.84628C4.5739 7.41186 6.07786 7.90361 6.44883 8.04411C6.9301 8.22475 9.40662 8.92726 10.5496 9.57958C12.4446 10.6534 12.8657 12.6104 12.8657 13.5236C12.8657 15.2899 12.204 16.7451 11.061 17.7587C9.0958 19.515 4.00239 20.2877 0.793945 16.6749L2.6388 14.477C3.46097 15.4906 4.88472 16.424 6.64936 16.424C7.88261 16.424 9.76757 15.8118 9.75754 13.8749C9.75754 12.6505 8.93538 11.9982 7.75227 11.5566C7.30108 11.386 5.13538 10.7237 4.22297 10.2821C1.48577 8.9674 1.42561 6.85989 1.42561 5.75596C1.42561 4.65202 2.02719 3.10652 3.3206 2.13305C7.11058 -0.727142 11.2314 1.45062 12.5048 2.73519Z" fill="#0A1F8F"/>
<path d="M51.5275 9.45932C53.3824 9.45932 54.8863 10.9647 54.8863 12.8213C54.8863 14.6779 53.3824 16.1833 51.5275 16.1833C49.6726 16.1833 48.1687 14.6779 48.1687 12.8213C48.1687 10.9647 49.6726 9.45932 51.5275 9.45932ZM51.5275 6.68945C48.1386 6.68945 45.4014 9.43925 45.4014 12.8213C45.4014 16.2134 48.1486 18.9531 51.5275 18.9531C54.9164 18.9531 57.6536 16.2034 57.6536 12.8213C57.6637 9.43925 54.9164 6.68945 51.5275 6.68945Z" fill="#0A1F8F"/>
<path d="M21.8341 9.45932C23.689 9.45932 25.193 10.9647 25.193 12.8213C25.193 14.6779 23.689 16.1833 21.8341 16.1833C19.9793 16.1833 18.4753 14.6779 18.4753 12.8213C18.4753 10.9647 19.9793 9.45932 21.8341 9.45932ZM21.8341 6.68945C18.4452 6.68945 15.708 9.43925 15.708 12.8213C15.708 16.2134 18.4552 18.9531 21.8341 18.9531C25.2231 18.9531 27.9603 16.2034 27.9603 12.8213C27.9703 9.43925 25.2231 6.68945 21.8341 6.68945Z" fill="#0A1F8F"/>
</svg>
